<svg width="13" height="14" viewBox="0 0 13 14" fill="none" xmlns="http://www.w3.org/2000/svg">
<g id="icon-reply-on-mono">
<g id="Vector">
<mask id="path-1-inside-1_2955_4506" fill="white">
<path fill-rule="evenodd" clip-rule="evenodd" d="M6.46853 2C9.24734 2 11.5 4.03798 11.5 6.55228C11.5 7.76319 10.9739 8.86053 10.1219 9.67659L10.5378 11.7127C10.5466 11.7562 10.5432 11.8014 10.5279 11.8431C10.5126 11.8848 10.4859 11.9214 10.451 11.9489C10.416 11.9763 10.3741 11.9935 10.33 11.9985C10.2858 12.0035 10.2411 11.9961 10.2009 11.9772L7.93389 10.9071C7.45649 11.0383 6.96362 11.1047 6.46853 11.1046C3.68972 11.1046 1.43706 9.06658 1.43706 6.55228C1.43706 4.03798 3.68972 2 6.46853 2Z"/>
</mask>
<path d="M10.1219 9.67659L9.14209 9.87673L9.03165 9.3361L9.43015 8.95441L10.1219 9.67659ZM10.5378 11.7127L11.5176 11.5125L11.5177 11.5133L10.5378 11.7127ZM10.2009 11.9772L9.77486 12.8819L9.77409 12.8815L10.2009 11.9772ZM7.93389 10.9071L7.66895 9.94287L8.02593 9.84479L8.36072 10.0028L7.93389 10.9071ZM6.46853 11.1046V10.1046H6.46882L6.46853 11.1046ZM6.46853 1C9.70309 1 12.5 3.39387 12.5 6.55228H10.5C10.5 4.6821 8.79159 3 6.46853 3V1ZM12.5 6.55228C12.5 8.06458 11.8408 9.4149 10.8136 10.3988L9.43015 8.95441C10.1069 8.30616 10.5 7.4618 10.5 6.55228H12.5ZM11.1016 9.47644L11.5176 11.5125L9.55803 11.9128L9.14209 9.87673L11.1016 9.47644ZM11.5177 11.5133C11.5636 11.7387 11.5458 11.9723 11.4665 12.1881L9.58929 11.4981C9.54063 11.6304 9.52974 11.7737 9.55785 11.912L11.5177 11.5133ZM11.4665 12.1881C11.3872 12.4039 11.2494 12.5934 11.0685 12.7354L9.8334 11.1623C9.72246 11.2494 9.63795 11.3657 9.58929 11.4981L11.4665 12.1881ZM11.0685 12.7354C10.8877 12.8774 10.6709 12.9663 10.4425 12.9921L10.2174 11.0048C10.0773 11.0207 9.94433 11.0752 9.8334 11.1623L11.0685 12.7354ZM10.4425 12.9921C10.214 13.018 9.98286 12.9798 9.77486 12.8819L10.627 11.0725C10.4994 11.0124 10.3576 10.989 10.2174 11.0048L10.4425 12.9921ZM9.77409 12.8815L7.50705 11.8115L8.36072 10.0028L10.6278 11.0728L9.77409 12.8815ZM8.19882 11.8714C7.63501 12.0263 7.05294 12.1047 6.46824 12.1046L6.46882 10.1046C6.8743 10.1047 7.27796 10.0503 7.66895 9.94287L8.19882 11.8714ZM6.46853 12.1046C3.23397 12.1046 0.437059 9.71069 0.437059 6.55228H2.43706C2.43706 8.42247 4.14547 10.1046 6.46853 10.1046V12.1046ZM0.437059 6.55228C0.437059 3.39387 3.23397 1 6.46853 1V3C4.14547 3 2.43706 4.6821 2.43706 6.55228H0.437059Z" fill="#BAC0C8" mask="url(#path-1-inside-1_2955_4506)"/>
</g>
</g>
</svg>
