<svg width="13" height="14" viewBox="0 0 13 14" fill="none" xmlns="http://www.w3.org/2000/svg">
<g id="icon-like-on-mono">
<g id="Vector">
<mask id="path-1-inside-1_2955_4502" fill="white">
<path fill-rule="evenodd" clip-rule="evenodd" d="M5.97068 11.3406C6.29231 11.5531 6.70716 11.5531 7.02831 11.3406C8.04972 10.6665 10.2736 9.05489 11.2318 7.25161C12.4947 4.87267 11.0116 2.5 9.05085 2.5C7.93333 2.5 7.26108 3.08387 6.88922 3.58564C6.84456 3.6471 6.78599 3.69711 6.71829 3.7316C6.6506 3.76608 6.57571 3.78406 6.49974 3.78406C6.42376 3.78406 6.34887 3.76608 6.28118 3.7316C6.21348 3.69711 6.15491 3.6471 6.11025 3.58564C5.73839 3.08387 5.06614 2.5 3.94862 2.5C1.9879 2.5 0.504806 4.87267 1.76817 7.25161C2.72535 9.05489 4.95023 10.6665 5.97068 11.3406Z"/>
</mask>
<path d="M7.02831 11.3406L6.47744 10.506L6.47651 10.5067L7.02831 11.3406ZM11.2318 7.25161L12.1149 7.72082L12.115 7.72049L11.2318 7.25161ZM6.88922 3.58564L6.08577 2.9902L6.0803 2.99773L6.88922 3.58564ZM6.11025 3.58564L6.91921 2.99771L6.91367 2.99023L6.11025 3.58564ZM1.76817 7.25161L2.65145 6.78277L2.65135 6.78259L1.76817 7.25161ZM5.41945 12.175C6.07514 12.6082 6.92414 12.6086 7.58011 12.1746L6.47651 10.5067C6.48245 10.5027 6.49096 10.5 6.49968 10.5C6.50838 10.5 6.5165 10.5027 6.5219 10.5063L5.41945 12.175ZM7.57918 12.1752C8.11339 11.8226 8.96648 11.2223 9.81731 10.4677C10.6569 9.72299 11.5542 8.77611 12.1149 7.72082L10.3487 6.7824C9.95127 7.53039 9.25745 8.29094 8.49023 8.97139C7.73422 9.64192 6.96464 10.1845 6.47744 10.506L7.57918 12.1752ZM12.115 7.72049C13.6494 4.83008 11.9338 1.5 9.05085 1.5V3.5C10.0893 3.5 11.3399 4.91526 10.3485 6.78273L12.115 7.72049ZM9.05085 1.5C7.52472 1.5 6.58393 2.31808 6.0858 2.99023L7.69264 4.18105C7.93824 3.84966 8.34195 3.5 9.05085 3.5V1.5ZM6.0803 2.99773C6.12839 2.93155 6.19147 2.87769 6.26437 2.84055L7.17222 4.62264C7.3805 4.51653 7.56072 4.36264 7.69815 4.17355L6.0803 2.99773ZM6.26437 2.84055C6.33727 2.80342 6.41792 2.78406 6.49974 2.78406V4.78406C6.73349 4.78406 6.96393 4.72874 7.17222 4.62264L6.26437 2.84055ZM6.49974 2.78406C6.58155 2.78406 6.6622 2.80342 6.7351 2.84055L5.82726 4.62264C6.03554 4.72874 6.26598 4.78406 6.49974 4.78406V2.78406ZM6.7351 2.84055C6.808 2.87769 6.87107 2.93155 6.91917 2.99773L5.30132 4.17355C5.43875 4.36264 5.61897 4.51653 5.82726 4.62264L6.7351 2.84055ZM6.91367 2.99023C6.41554 2.31808 5.47476 1.5 3.94862 1.5V3.5C4.65752 3.5 5.06123 3.84966 5.30683 4.18105L6.91367 2.99023ZM3.94862 1.5C1.06566 1.5 -0.650034 4.83016 0.884982 7.72063L2.65135 6.78259C1.65965 4.91517 2.91015 3.5 3.94862 3.5V1.5ZM0.884886 7.72045C1.44518 8.77602 2.34257 9.72303 3.18216 10.4677C4.033 11.2223 4.88603 11.8226 5.41945 12.175L6.52191 10.5063C6.03488 10.1845 5.26525 9.64192 4.50924 8.97139C3.74197 8.29089 3.04833 7.53048 2.65145 6.78277L0.884886 7.72045Z" fill="#BAC0C8" mask="url(#path-1-inside-1_2955_4502)"/>
</g>
</g>
</svg>
