<svg width="13" height="14" viewBox="0 0 13 14" fill="none" xmlns="http://www.w3.org/2000/svg">
<g id="icon-eye-on-mono">
<g id="Vector">
<path fill-rule="evenodd" clip-rule="evenodd" d="M6.40908 5.4935C5.57791 5.4935 4.90259 6.16882 4.90259 6.99999C4.90259 7.83116 5.57791 8.50649 6.40908 8.50649C7.24025 8.50649 7.91557 7.83116 7.91557 6.99999C7.91557 6.16882 7.24025 5.4935 6.40908 5.4935Z" fill="#BAC0C8"/>
<path fill-rule="evenodd" clip-rule="evenodd" d="M6.40909 9.5974C4.95455 9.5974 3.81169 8.4026 3.81169 7C3.81169 5.5974 5.00649 4.4026 6.40909 4.4026C7.81169 4.4026 9.00649 5.5974 9.00649 7C9.00649 8.4026 7.86364 9.5974 6.40909 9.5974ZM12.1234 6.32468C10.7727 4.24675 8.64286 3 6.40909 3C4.17532 3 2.04545 4.24675 0.694805 6.32468C0.435065 6.74026 0.435065 7.25974 0.694805 7.67532C2.04545 9.75325 4.17532 11 6.40909 11C8.64286 11 10.7727 9.75325 12.1234 7.67532C12.4351 7.25974 12.4351 6.74026 12.1234 6.32468Z" fill="#BAC0C8"/>
</g>
</g>
</svg>
